<svg width="170" height="45" viewBox="0 0 170 45" fill="none" xmlns="http://www.w3.org/2000/svg">
<path fill-rule="evenodd" clip-rule="evenodd" d="M72.314 31.1252L79.5681 14.1701C80.0916 12.9464 81.2944 12.1528 82.6253 12.1528C83.9568 12.1528 85.1606 12.9452 85.6869 14.1682L92.8127 30.725C93.2985 31.8536 92.7773 33.1622 91.6488 33.6479C91.3993 33.7553 91.1322 33.8161 90.8607 33.8272C89.7903 33.7458 88.8571 33.0684 88.4479 32.076L87.1373 28.8972H77.9897L76.7049 32.0697C76.2747 33.132 75.2431 33.8272 74.0969 33.8272C73.0259 33.8272 72.1577 32.959 72.1577 31.888C72.1577 31.6258 72.2109 31.3663 72.314 31.1252L72.314 31.1252ZM79.6894 24.7417H85.4376L83.4261 19.3161C83.2495 18.8397 82.7201 18.5966 82.2437 18.7733C81.9923 18.8665 81.7941 19.0647 81.7009 19.3161L79.6894 24.7417ZM105.204 30.9901L112.444 14.1682C112.971 12.9452 114.174 12.1528 115.506 12.1528C116.837 12.1528 118.041 12.9452 118.567 14.1682L125.715 30.7761C126.172 31.8371 125.682 33.0674 124.621 33.5241C124.36 33.6365 124.078 33.6944 123.794 33.6944C122.706 33.6944 121.725 33.0379 121.31 32.0318L120.018 28.8972H110.87L109.62 31.9307C109.179 32.998 108.139 33.6944 106.985 33.6944C105.914 33.6944 105.046 32.8267 105.046 31.7563C105.046 31.4928 105.1 31.2321 105.204 30.9901ZM112.57 24.7417H118.318L116.307 19.3161C116.13 18.8397 115.601 18.5966 115.124 18.7733C114.873 18.8665 114.675 19.0647 114.581 19.3161L112.57 24.7417ZM129.914 30.0144V15.9856C129.914 13.9531 131.562 12.3056 133.594 12.3056H138.351C145.15 12.3056 149.379 16.9194 149.379 23C149.379 29.0194 145.15 33.6944 138.351 33.6944H133.594C131.562 33.6944 129.914 32.0469 129.914 30.0144ZM135.593 29.4472H138.351C142.245 29.4472 144.404 26.85 144.404 23C144.404 19.2111 142.245 16.5528 138.351 16.5528H135.593C135.085 16.5528 134.673 16.9647 134.673 17.4728V28.5272C134.673 29.0353 135.085 29.4472 135.593 29.4472ZM161.956 34C166.622 34 169.898 31.6167 169.898 27.3694C169.898 23.5806 167.426 22.0222 163.037 20.8917C159.298 19.9444 158.371 19.4861 158.371 18.0806C158.371 16.9806 159.616 16.0703 161.071 16.0703C162.526 16.0703 165.17 17.0732 166.209 17.4591C167.249 17.845 168.625 17.9083 169.175 16.9893C169.725 16.0703 169.646 15.0589 168.807 14.2829C167.969 13.507 164.366 12 161.214 12C156.795 12 153.642 14.5667 153.642 18.4472C153.642 22.7556 156.455 23.9472 160.812 25.0472C164.428 25.9639 165.17 26.575 165.17 27.7667C165.17 29.0806 163.902 30.0678 161.956 30.0678C159.483 30.0678 156.797 28.2099 156.016 27.806C155.235 27.402 153.953 27.3056 153.203 28.3198C152.454 29.3339 153.022 30.5709 153.749 31.248C154.477 31.9252 157.645 34 161.956 34Z" fill="white"/>
<path fill-rule="evenodd" clip-rule="evenodd" d="M99.2674 24.7145C100.482 24.7145 101.467 23.7295 101.467 22.5145C101.467 21.2994 100.482 20.3145 99.2674 20.3145C98.0524 20.3145 97.0674 21.2994 97.0674 22.5145C97.0674 23.7295 98.0524 24.7145 99.2674 24.7145Z" fill="#03A9F4"/>
<path d="M11.8225 42.5058C10.6509 41.7437 9.72781 40.739 9.12426 39.5612C8.48521 38.418 8.13018 37.1016 8.13018 35.7506C8.13018 34.1917 8.55621 32.7367 9.37278 31.4896C10.1538 30.2079 11.2899 29.1686 12.7101 28.4757C13.2426 28.1986 13.8817 28.4065 14.1302 28.9261C14.3432 29.3072 14.2722 29.7575 13.9882 30.0693C13.8462 30.2425 13.7396 30.4503 13.6686 30.6582C13.5621 30.8661 13.5266 31.1085 13.5266 31.351C13.5266 31.94 13.7751 32.4596 14.1657 32.8406C14.5562 33.2217 15.0888 33.4642 15.6923 33.4642C15.9408 33.4642 16.1894 33.3949 16.4379 33.3256C16.6509 33.2564 16.8639 33.1178 17.0769 32.9446C18.213 32.0092 19.4911 31.2125 20.8402 30.5543C21.6213 30.2079 22.4024 29.8961 23.1834 29.6536C22.4024 28.8222 21.7988 27.8522 21.3728 26.7783C20.2722 26.709 19.3136 26.2587 18.568 25.5312C17.7515 24.7344 17.2544 23.6605 17.2544 22.448C17.2544 21.2702 17.7515 20.1963 18.568 19.3995C18.6035 19.3649 18.6035 19.3649 18.6391 19.3303C19.4556 18.5681 20.5207 18.1178 21.7278 18.1178L22.5089 14.5497C21.0533 15.5889 19.2781 16.2125 17.3609 16.2125H10.7929C8.66272 16.2125 6.71006 15.485 5.21894 14.2032C3.69231 12.9561 2.66272 11.1894 2.30769 9.18014L1.49112 4.15704C1.49112 4.15704 1.49112 4.1224 1.49112 4.08776V4.05312C1.13609 3.94919 0.852071 3.77598 0.60355 3.53349C0.213018 3.15243 0 2.63279 0 2.07852C0 1.55889 0.213018 1.0739 0.532544 0.692841C0.568047 0.658199 0.568047 0.623557 0.60355 0.623557C0.994083 0.242494 1.52663 0 2.09467 0H5.14793H23.2544H23.2899C24.3195 0 25.2071 0.415704 25.8817 1.0739C25.9882 1.17783 26.1302 1.3164 26.2367 1.45497C26.6272 1.24711 27.0533 1.0739 27.4793 0.935335C28.2959 0.692841 29.1479 0.554273 30 0.554273C30.8521 0.554273 31.7041 0.692841 32.5207 0.935335C32.9467 1.0739 33.3728 1.24711 33.7633 1.45497C33.8698 1.3164 34.0118 1.17783 34.1183 1.0739C34.7929 0.415704 35.6805 0 36.7101 0H36.7456H54.8521H57.8698H57.9053C58.4734 0 59.0059 0.242494 59.3965 0.623557C59.3965 0.623557 59.432 0.658199 59.4675 0.692841C59.787 1.0739 60 1.55889 60 2.07852C60 2.63279 59.7515 3.15243 59.3965 3.53349C59.1479 3.77598 58.8284 3.94919 58.5089 4.05312V4.08776C58.5089 4.1224 58.5089 4.15704 58.4734 4.15704L57.6923 9.18014C57.3373 11.1894 56.2722 12.9561 54.7811 14.2032C53.2899 15.485 51.3373 16.2125 49.2071 16.2125H42.6391C40.7219 16.2125 38.9467 15.5889 37.4911 14.5497L38.2722 18.1178C39.5148 18.1178 40.6154 18.6028 41.432 19.3995C42.213 20.1963 42.7101 21.2702 42.7101 22.448C42.7101 23.6605 42.213 24.7344 41.432 25.5312C40.6864 26.2587 39.6923 26.709 38.6272 26.7783C38.2012 27.8522 37.5621 28.8222 36.8166 29.6536C37.5976 29.8961 38.3787 30.2079 39.1598 30.5543C40.5089 31.2125 41.7515 32.0092 42.9231 32.9446C43.1361 33.1178 43.3491 33.2564 43.5621 33.3256C43.8106 33.3949 44.0592 33.4642 44.3077 33.4642C44.9112 33.4642 45.4438 33.2217 45.8343 32.8406C46.2249 32.4596 46.4734 31.94 46.4734 31.351C46.4734 31.1085 46.4379 30.8661 46.3314 30.6582C46.2604 30.4503 46.1538 30.2425 46.0118 30.0693C45.7278 29.7575 45.6568 29.3072 45.8698 28.9261C46.1183 28.4065 46.7574 28.1986 47.2899 28.4757C48.6746 29.1686 49.8462 30.2079 50.6272 31.4896C51.4438 32.7367 51.8698 34.1917 51.8698 35.7506C51.8698 37.1016 51.5148 38.418 50.8757 39.5612C50.2722 40.739 49.3491 41.7437 48.1775 42.5058C46.9349 43.3372 45.5858 43.9607 44.1657 44.3764C42.7456 44.7921 41.2899 45 39.7988 45C37.8462 45 35.8935 44.6189 34.0828 43.8915C32.6272 43.3025 31.2426 42.4711 30 41.4319C28.7574 42.4711 27.3728 43.3025 25.8817 43.8915C24.1065 44.6189 22.1538 45 20.2012 45C18.7101 45 17.2189 44.7921 15.7988 44.3764C14.4142 43.9607 13.0651 43.3372 11.8225 42.5058ZM33.6213 6.72055C33.4438 5.88915 32.9823 5.23095 32.3432 4.71132C31.7041 4.22633 30.8876 3.91455 30 3.91455C29.1124 3.91455 28.2959 4.22633 27.6568 4.71132C27.0178 5.23095 26.5562 5.88915 26.3787 6.72055L26.2367 7.20554V7.24018L25.7396 9.63048V9.66513H25.7041L23.6095 19.4688C23.503 20.0231 22.9349 20.4042 22.3669 20.2656C22.3314 20.2656 22.2959 20.2656 22.2604 20.2656C22.1893 20.2309 22.0828 20.2309 22.0118 20.1963C21.9408 20.1963 21.8343 20.1963 21.7278 20.1963C21.0888 20.1963 20.5207 20.4388 20.1302 20.8199C20.0947 20.8199 20.0947 20.8545 20.0592 20.8545C19.6331 21.2702 19.3846 21.8245 19.3846 22.448C19.3846 23.1062 19.6331 23.6605 20.0592 24.0762C20.2722 24.2841 20.5562 24.4573 20.8402 24.5612C20.8047 24.2494 20.7692 23.903 20.7692 23.5566C20.7692 23.0023 21.2308 22.5173 21.8343 22.5173C22.4024 22.5173 22.8994 23.0023 22.8994 23.5566C22.8994 24.2148 22.9704 24.8383 23.1479 25.4273C23.1479 25.4619 23.1479 25.4619 23.1834 25.4965C23.503 26.6397 24.142 27.6443 24.9586 28.4757C26.2367 29.7229 28.0118 30.485 29.9645 30.485H30H30.0355C31.9882 30.485 33.7633 29.7229 35.0414 28.4757C35.858 27.6443 36.497 26.6397 36.8166 25.4965C36.8521 25.4619 36.8521 25.4619 36.8521 25.4273C37.0296 24.8383 37.1006 24.2148 37.1006 23.5566C37.1006 23.0023 37.5976 22.5173 38.1657 22.5173C38.7692 22.5173 39.2308 23.0023 39.2308 23.5566C39.2308 23.903 39.1953 24.2494 39.1598 24.5612C39.4438 24.4573 39.7278 24.2841 39.9408 24.0762C40.3314 23.6605 40.6154 23.1062 40.6154 22.448C40.6154 21.8245 40.3314 21.2702 39.9408 20.8545C39.5148 20.4388 38.9112 20.1963 38.2722 20.1963C38.1657 20.1963 38.0592 20.1963 37.9882 20.1963C37.8817 20.2309 37.8106 20.2309 37.7396 20.2656C37.7041 20.2656 37.6686 20.2656 37.6331 20.2656C37.0651 20.4042 36.497 20.0231 36.3905 19.4688L34.2604 9.66513V9.63048L33.7633 7.24018L33.7278 7.20554L33.6213 6.72055ZM36.3195 9.21478H36.355C36.6746 10.6697 37.4911 11.8822 38.5917 12.7829C39.6923 13.649 41.1124 14.1686 42.6391 14.1686H49.2071C50.8047 14.1686 52.2604 13.5797 53.3965 12.6443C54.5325 11.709 55.3491 10.358 55.5976 8.83372L56.4142 3.84527V3.81062C56.4142 3.77598 56.4142 3.74134 56.4142 3.7067C56.4142 3.7067 56.4142 3.67206 56.4142 3.60277C56.4142 3.18707 56.2367 2.806 55.9527 2.52887C55.6686 2.25173 55.2781 2.07852 54.8521 2.07852H36.7456C36.284 2.07852 35.8935 2.25173 35.6095 2.52887C35.3254 2.806 35.1479 3.18707 35.1479 3.60277C35.1479 3.67206 35.1479 3.74134 35.1834 3.77598C35.1834 3.81062 35.1834 3.84527 35.1834 3.87991V3.91455L35.8225 6.78984V6.82448L36.3195 9.21478ZM23.645 9.21478L24.1775 6.82448V6.78984L24.8166 3.91455V3.87991C24.8166 3.84527 24.8166 3.81062 24.8166 3.77598C24.8166 3.74134 24.8521 3.67206 24.8521 3.60277C24.8521 3.18707 24.6746 2.806 24.3905 2.52887C24.1065 2.25173 23.716 2.07852 23.2544 2.07852H5.14793C4.72189 2.07852 4.33136 2.25173 4.04734 2.52887C3.76331 2.806 3.5858 3.18707 3.5858 3.60277C3.5858 3.67206 3.5858 3.7067 3.5858 3.7067C3.5858 3.74134 3.5858 3.77598 3.5858 3.81062V3.84527L4.40237 8.83372C4.65089 10.358 5.46746 11.709 6.60355 12.6443C7.70414 13.5797 9.19527 14.1686 10.7929 14.1686H17.3609C18.8876 14.1686 20.2722 13.649 21.4083 12.7829C22.5089 11.8822 23.3254 10.6697 23.645 9.21478Z" fill="#03A9F4"/>
</svg>
