<svg width="20" height="20" viewBox="0 0 20 20" fill="none" xmlns="http://www.w3.org/2000/svg">
<g clip-path="url(#clip0_4_375)">
<path d="M9.99999 20C15.5228 20 20 15.5228 20 10C20 4.47715 15.5228 0 9.99999 0C4.47714 0 -7.62939e-06 4.47715 -7.62939e-06 10C-7.62939e-06 15.5228 4.47714 20 9.99999 20Z" fill="#627EEA"/>
<path d="M10.3112 2.5V8.04375L14.9969 10.1375L10.3112 2.5Z" fill="white" fill-opacity="0.602"/>
<path d="M10.3112 2.5L5.62499 10.1375L10.3112 8.04375V2.5Z" fill="white"/>
<path d="M10.3112 13.73V17.4969L15 11.01L10.3112 13.73Z" fill="white" fill-opacity="0.602"/>
<path d="M10.3112 17.4969V13.7294L5.62499 11.01L10.3112 17.4969Z" fill="white"/>
<path d="M10.3112 12.8582L14.9969 10.1375L10.3112 8.04504V12.8582Z" fill="white" fill-opacity="0.2"/>
<path d="M5.62499 10.1375L10.3112 12.8582V8.04504L5.62499 10.1375Z" fill="white" fill-opacity="0.602"/>
</g>
<defs>
<clipPath id="clip0_4_375">
<rect width="20" height="20" fill="white"/>
</clipPath>
</defs>
</svg>
