<svg width="202" height="50" viewBox="0 0 202 50" fill="none" xmlns="http://www.w3.org/2000/svg">
<path d="M77.2031 13.25V36H72.5312V13.25H77.2031ZM84.2031 13.25V16.9219H65.6406V13.25H84.2031ZM83.1562 27.7188V27.3906C83.1562 26.151 83.3333 25.0104 83.6875 23.9688C84.0417 22.9167 84.5573 22.0052 85.2344 21.2344C85.9115 20.4635 86.7448 19.8646 87.7344 19.4375C88.724 19 89.8594 18.7812 91.1406 18.7812C92.4219 18.7812 93.5625 19 94.5625 19.4375C95.5625 19.8646 96.401 20.4635 97.0781 21.2344C97.7656 22.0052 98.2865 22.9167 98.6406 23.9688C98.9948 25.0104 99.1719 26.151 99.1719 27.3906V27.7188C99.1719 28.9479 98.9948 30.0885 98.6406 31.1406C98.2865 32.1823 97.7656 33.0938 97.0781 33.875C96.401 34.6458 95.5677 35.2448 94.5781 35.6719C93.5885 36.099 92.4531 36.3125 91.1719 36.3125C89.8906 36.3125 88.75 36.099 87.75 35.6719C86.7604 35.2448 85.9219 34.6458 85.2344 33.875C84.5573 33.0938 84.0417 32.1823 83.6875 31.1406C83.3333 30.0885 83.1562 28.9479 83.1562 27.7188ZM87.6562 27.3906V27.7188C87.6562 28.4271 87.7188 29.0885 87.8438 29.7031C87.9688 30.3177 88.1667 30.8594 88.4375 31.3281C88.7188 31.7865 89.0833 32.1458 89.5312 32.4062C89.9792 32.6667 90.526 32.7969 91.1719 32.7969C91.7969 32.7969 92.3333 32.6667 92.7812 32.4062C93.2292 32.1458 93.5885 31.7865 93.8594 31.3281C94.1302 30.8594 94.3281 30.3177 94.4531 29.7031C94.5885 29.0885 94.6562 28.4271 94.6562 27.7188V27.3906C94.6562 26.7031 94.5885 26.0573 94.4531 25.4531C94.3281 24.8385 94.125 24.2969 93.8438 23.8281C93.5729 23.349 93.2135 22.974 92.7656 22.7031C92.3177 22.4323 91.776 22.2969 91.1406 22.2969C90.5052 22.2969 89.9635 22.4323 89.5156 22.7031C89.0781 22.974 88.7188 23.349 88.4375 23.8281C88.1667 24.2969 87.9688 24.8385 87.8438 25.4531C87.7188 26.0573 87.6562 26.7031 87.6562 27.3906ZM106.438 11.9844V36H101.938V11.9844H106.438ZM117.094 19.0938L109.75 27.4688L105.812 31.4531L104.172 28.2031L107.297 24.2344L111.688 19.0938H117.094ZM112.422 36L107.422 28.1875L110.531 25.4688L117.609 36H112.422ZM126.5 36.3125C125.188 36.3125 124.01 36.1042 122.969 35.6875C121.927 35.2604 121.042 34.6719 120.312 33.9219C119.594 33.1719 119.042 32.3021 118.656 31.3125C118.271 30.3125 118.078 29.25 118.078 28.125V27.5C118.078 26.2188 118.26 25.0469 118.625 23.9844C118.99 22.9219 119.51 22 120.188 21.2188C120.875 20.4375 121.708 19.8385 122.688 19.4219C123.667 18.9948 124.771 18.7812 126 18.7812C127.198 18.7812 128.26 18.9792 129.188 19.375C130.115 19.7708 130.891 20.3333 131.516 21.0625C132.151 21.7917 132.63 22.6667 132.953 23.6875C133.276 24.6979 133.438 25.8229 133.438 27.0625V28.9375H120V25.9375H129.016V25.5938C129.016 24.9688 128.901 24.4115 128.672 23.9219C128.453 23.4219 128.12 23.026 127.672 22.7344C127.224 22.4427 126.651 22.2969 125.953 22.2969C125.359 22.2969 124.849 22.4271 124.422 22.6875C123.995 22.9479 123.646 23.3125 123.375 23.7812C123.115 24.25 122.917 24.8021 122.781 25.4375C122.656 26.0625 122.594 26.75 122.594 27.5V28.125C122.594 28.8021 122.688 29.4271 122.875 30C123.073 30.5729 123.349 31.0677 123.703 31.4844C124.068 31.901 124.505 32.224 125.016 32.4531C125.536 32.6823 126.125 32.7969 126.781 32.7969C127.594 32.7969 128.349 32.6406 129.047 32.3281C129.755 32.0052 130.365 31.5208 130.875 30.875L133.062 33.25C132.708 33.7604 132.224 34.25 131.609 34.7188C131.005 35.1875 130.276 35.5729 129.422 35.875C128.568 36.1667 127.594 36.3125 126.5 36.3125ZM140.406 22.7031V36H135.906V19.0938H140.125L140.406 22.7031ZM139.75 26.9531H138.531C138.531 25.7031 138.693 24.5781 139.016 23.5781C139.339 22.5677 139.792 21.7083 140.375 21C140.958 20.2812 141.651 19.7344 142.453 19.3594C143.266 18.974 144.172 18.7812 145.172 18.7812C145.964 18.7812 146.688 18.8958 147.344 19.125C148 19.3542 148.562 19.7188 149.031 20.2188C149.51 20.7188 149.875 21.3802 150.125 22.2031C150.385 23.026 150.516 24.0312 150.516 25.2188V36H145.984V25.2031C145.984 24.4531 145.88 23.8698 145.672 23.4531C145.464 23.0365 145.156 22.7448 144.75 22.5781C144.354 22.401 143.865 22.3125 143.281 22.3125C142.677 22.3125 142.151 22.4323 141.703 22.6719C141.266 22.9115 140.901 23.2448 140.609 23.6719C140.328 24.0885 140.115 24.5781 139.969 25.1406C139.823 25.7031 139.75 26.3073 139.75 26.9531ZM163.125 26.0156H157.281L157.25 22.7969H162.156C163.021 22.7969 163.729 22.6875 164.281 22.4688C164.833 22.2396 165.245 21.9115 165.516 21.4844C165.797 21.0469 165.938 20.5156 165.938 19.8906C165.938 19.1823 165.802 18.6094 165.531 18.1719C165.271 17.7344 164.859 17.4167 164.297 17.2188C163.745 17.0208 163.031 16.9219 162.156 16.9219H158.906V36H154.219V13.25H162.156C163.479 13.25 164.661 13.375 165.703 13.625C166.755 13.875 167.646 14.2552 168.375 14.7656C169.104 15.276 169.661 15.9219 170.047 16.7031C170.432 17.474 170.625 18.3906 170.625 19.4531C170.625 20.3906 170.411 21.2552 169.984 22.0469C169.568 22.8385 168.906 23.4844 168 23.9844C167.104 24.4844 165.932 24.7604 164.484 24.8125L163.125 26.0156ZM162.922 36H156L157.828 32.3438H162.922C163.745 32.3438 164.417 32.2135 164.938 31.9531C165.458 31.6823 165.844 31.3177 166.094 30.8594C166.344 30.401 166.469 29.875 166.469 29.2812C166.469 28.6146 166.354 28.0365 166.125 27.5469C165.906 27.0573 165.552 26.6823 165.062 26.4219C164.573 26.151 163.927 26.0156 163.125 26.0156H158.609L158.641 22.7969H164.266L165.344 24.0625C166.729 24.0417 167.844 24.2865 168.688 24.7969C169.542 25.2969 170.161 25.9479 170.547 26.75C170.943 27.5521 171.141 28.4115 171.141 29.3281C171.141 30.7865 170.823 32.0156 170.188 33.0156C169.552 34.0052 168.62 34.75 167.391 35.25C166.172 35.75 164.682 36 162.922 36ZM183.5 32.1875V24.6562C183.5 24.1146 183.411 23.651 183.234 23.2656C183.057 22.8698 182.781 22.5625 182.406 22.3438C182.042 22.125 181.568 22.0156 180.984 22.0156C180.484 22.0156 180.052 22.1042 179.688 22.2812C179.323 22.4479 179.042 22.6927 178.844 23.0156C178.646 23.3281 178.547 23.6979 178.547 24.125H174.047C174.047 23.4062 174.214 22.724 174.547 22.0781C174.88 21.4323 175.365 20.8646 176 20.375C176.635 19.875 177.391 19.4844 178.266 19.2031C179.151 18.9219 180.141 18.7812 181.234 18.7812C182.547 18.7812 183.714 19 184.734 19.4375C185.755 19.875 186.557 20.5312 187.141 21.4062C187.734 22.2812 188.031 23.375 188.031 24.6875V31.9219C188.031 32.849 188.089 33.6094 188.203 34.2031C188.318 34.7865 188.484 35.2969 188.703 35.7344V36H184.156C183.938 35.5417 183.771 34.9688 183.656 34.2812C183.552 33.5833 183.5 32.8854 183.5 32.1875ZM184.094 25.7031L184.125 28.25H181.609C181.016 28.25 180.5 28.3177 180.062 28.4531C179.625 28.5885 179.266 28.7812 178.984 29.0312C178.703 29.2708 178.495 29.5521 178.359 29.875C178.234 30.1979 178.172 30.5521 178.172 30.9375C178.172 31.3229 178.26 31.6719 178.438 31.9844C178.615 32.2865 178.87 32.526 179.203 32.7031C179.536 32.8698 179.927 32.9531 180.375 32.9531C181.052 32.9531 181.641 32.8177 182.141 32.5469C182.641 32.276 183.026 31.9427 183.297 31.5469C183.578 31.151 183.724 30.776 183.734 30.4219L184.922 32.3281C184.755 32.7552 184.526 33.1979 184.234 33.6562C183.953 34.1146 183.594 34.5469 183.156 34.9531C182.719 35.349 182.193 35.6771 181.578 35.9375C180.964 36.1875 180.234 36.3125 179.391 36.3125C178.318 36.3125 177.344 36.099 176.469 35.6719C175.604 35.2344 174.917 34.6354 174.406 33.875C173.906 33.1042 173.656 32.2292 173.656 31.25C173.656 30.3646 173.823 29.5781 174.156 28.8906C174.49 28.2031 174.979 27.625 175.625 27.1562C176.281 26.6771 177.099 26.3177 178.078 26.0781C179.057 25.8281 180.193 25.7031 181.484 25.7031H184.094ZM196 22.7812V36H191.5V19.0938H195.734L196 22.7812ZM201.094 18.9844L201.016 23.1562C200.797 23.125 200.531 23.099 200.219 23.0781C199.917 23.0469 199.641 23.0312 199.391 23.0312C198.755 23.0312 198.203 23.1146 197.734 23.2812C197.276 23.4375 196.891 23.6719 196.578 23.9844C196.276 24.2969 196.047 24.6771 195.891 25.125C195.745 25.5729 195.661 26.0833 195.641 26.6562L194.734 26.375C194.734 25.2812 194.844 24.276 195.062 23.3594C195.281 22.4323 195.599 21.625 196.016 20.9375C196.443 20.25 196.964 19.7188 197.578 19.3438C198.193 18.9688 198.896 18.7812 199.688 18.7812C199.938 18.7812 200.193 18.8021 200.453 18.8438C200.714 18.875 200.927 18.9219 201.094 18.9844Z" fill="white"/>
<circle cx="25" cy="25" r="25" fill="#6333FF"/>
</svg>
