<svg width="164" height="40" viewBox="0 0 164 40" fill="none" xmlns="http://www.w3.org/2000/svg">
<circle cx="20" cy="20" r="20" fill="#6333FF"/>
<path d="M62.915 10.5156V29H59.1191V10.5156H62.915ZM68.6025 10.5156V13.499H53.5205V10.5156H68.6025ZM67.752 22.2715V22.0049C67.752 20.9977 67.8958 20.071 68.1836 19.2246C68.4714 18.3698 68.8903 17.6292 69.4404 17.0029C69.9906 16.3766 70.6676 15.89 71.4717 15.543C72.2757 15.1875 73.1982 15.0098 74.2393 15.0098C75.2803 15.0098 76.207 15.1875 77.0195 15.543C77.832 15.89 78.5133 16.3766 79.0635 17.0029C79.6221 17.6292 80.0452 18.3698 80.333 19.2246C80.6208 20.071 80.7646 20.9977 80.7646 22.0049V22.2715C80.7646 23.2702 80.6208 24.1969 80.333 25.0518C80.0452 25.8981 79.6221 26.6387 79.0635 27.2734C78.5133 27.8997 77.8363 28.3864 77.0322 28.7334C76.2282 29.0804 75.3057 29.2539 74.2646 29.2539C73.2236 29.2539 72.2969 29.0804 71.4844 28.7334C70.6803 28.3864 69.999 27.8997 69.4404 27.2734C68.8903 26.6387 68.4714 25.8981 68.1836 25.0518C67.8958 24.1969 67.752 23.2702 67.752 22.2715ZM71.4082 22.0049V22.2715C71.4082 22.847 71.459 23.3844 71.5605 23.8838C71.6621 24.3831 71.8229 24.8232 72.043 25.2041C72.2715 25.5765 72.5677 25.8685 72.9316 26.0801C73.2956 26.2917 73.7399 26.3975 74.2646 26.3975C74.7725 26.3975 75.2083 26.2917 75.5723 26.0801C75.9362 25.8685 76.2282 25.5765 76.4482 25.2041C76.6683 24.8232 76.8291 24.3831 76.9307 23.8838C77.0407 23.3844 77.0957 22.847 77.0957 22.2715V22.0049C77.0957 21.4463 77.0407 20.9215 76.9307 20.4307C76.8291 19.9313 76.6641 19.4912 76.4355 19.1104C76.2155 18.721 75.9235 18.4163 75.5596 18.1963C75.1956 17.9762 74.7555 17.8662 74.2393 17.8662C73.723 17.8662 73.2829 17.9762 72.9189 18.1963C72.5635 18.4163 72.2715 18.721 72.043 19.1104C71.8229 19.4912 71.6621 19.9313 71.5605 20.4307C71.459 20.9215 71.4082 21.4463 71.4082 22.0049ZM86.668 9.4873V29H83.0117V9.4873H86.668ZM95.3262 15.2637L89.3594 22.0684L86.1602 25.3057L84.8271 22.665L87.3662 19.4404L90.9336 15.2637H95.3262ZM91.5303 29L87.4678 22.6523L89.9941 20.4434L95.7451 29H91.5303ZM102.969 29.2539C101.902 29.2539 100.946 29.0846 100.1 28.7461C99.2533 28.3991 98.5339 27.9209 97.9414 27.3115C97.3574 26.7021 96.9089 25.9954 96.5957 25.1914C96.2826 24.3789 96.126 23.5156 96.126 22.6016V22.0938C96.126 21.0527 96.2741 20.1006 96.5703 19.2373C96.8665 18.374 97.2897 17.625 97.8398 16.9902C98.3984 16.3555 99.0755 15.8688 99.8711 15.5303C100.667 15.1833 101.564 15.0098 102.562 15.0098C103.536 15.0098 104.399 15.1706 105.152 15.4922C105.906 15.8138 106.536 16.2708 107.044 16.8633C107.56 17.4557 107.95 18.1667 108.212 18.9961C108.474 19.8171 108.605 20.7311 108.605 21.7383V23.2617H97.6875V20.8242H105.013V20.5449C105.013 20.0371 104.92 19.5843 104.733 19.1865C104.556 18.7803 104.285 18.4587 103.921 18.2217C103.557 17.9847 103.091 17.8662 102.524 17.8662C102.042 17.8662 101.627 17.972 101.28 18.1836C100.933 18.3952 100.65 18.6914 100.43 19.0723C100.218 19.4531 100.057 19.9017 99.9473 20.418C99.8457 20.9258 99.7949 21.4844 99.7949 22.0938V22.6016C99.7949 23.1517 99.8711 23.6595 100.023 24.125C100.184 24.5905 100.409 24.9925 100.696 25.3311C100.993 25.6696 101.348 25.932 101.763 26.1182C102.186 26.3044 102.664 26.3975 103.197 26.3975C103.857 26.3975 104.471 26.2705 105.038 26.0166C105.614 25.7542 106.109 25.3607 106.523 24.8359L108.301 26.7656C108.013 27.1803 107.619 27.5781 107.12 27.959C106.629 28.3398 106.037 28.653 105.343 28.8984C104.649 29.1354 103.857 29.2539 102.969 29.2539ZM114.268 18.1963V29H110.611V15.2637H114.039L114.268 18.1963ZM113.734 21.6494H112.744C112.744 20.6338 112.875 19.7197 113.138 18.9072C113.4 18.0863 113.768 17.388 114.242 16.8125C114.716 16.2285 115.279 15.7842 115.931 15.4795C116.591 15.1663 117.327 15.0098 118.14 15.0098C118.783 15.0098 119.371 15.1029 119.904 15.2891C120.438 15.4753 120.895 15.7715 121.275 16.1777C121.665 16.584 121.961 17.1214 122.164 17.79C122.376 18.4587 122.481 19.2754 122.481 20.2402V29H118.8V20.2275C118.8 19.6182 118.715 19.1442 118.546 18.8057C118.377 18.4671 118.127 18.2301 117.797 18.0947C117.475 17.9508 117.077 17.8789 116.604 17.8789C116.113 17.8789 115.685 17.9762 115.321 18.1709C114.966 18.3656 114.67 18.6364 114.433 18.9834C114.204 19.3219 114.031 19.7197 113.912 20.1768C113.794 20.6338 113.734 21.1247 113.734 21.6494ZM132.727 20.8877H127.979L127.953 18.2725H131.939C132.642 18.2725 133.217 18.1836 133.666 18.0059C134.115 17.8197 134.449 17.5531 134.669 17.2061C134.897 16.8506 135.012 16.4189 135.012 15.9111C135.012 15.3356 134.902 14.8701 134.682 14.5146C134.47 14.1592 134.136 13.901 133.679 13.7402C133.23 13.5794 132.65 13.499 131.939 13.499H129.299V29H125.49V10.5156H131.939C133.014 10.5156 133.975 10.6172 134.821 10.8203C135.676 11.0234 136.4 11.3324 136.992 11.7471C137.585 12.1618 138.037 12.6865 138.351 13.3213C138.664 13.9476 138.82 14.6924 138.82 15.5557C138.82 16.3174 138.647 17.0199 138.3 17.6631C137.961 18.3063 137.424 18.8311 136.688 19.2373C135.96 19.6436 135.007 19.8678 133.831 19.9102L132.727 20.8877ZM132.562 29H126.938L128.423 26.0293H132.562C133.23 26.0293 133.776 25.9235 134.199 25.7119C134.622 25.4919 134.936 25.1956 135.139 24.8232C135.342 24.4508 135.443 24.0234 135.443 23.541C135.443 22.9993 135.35 22.5296 135.164 22.1318C134.986 21.734 134.699 21.4294 134.301 21.2178C133.903 20.9977 133.378 20.8877 132.727 20.8877H129.058L129.083 18.2725H133.653L134.529 19.3008C135.655 19.2839 136.561 19.4827 137.246 19.8975C137.94 20.3037 138.444 20.8327 138.757 21.4844C139.078 22.1361 139.239 22.8343 139.239 23.5791C139.239 24.764 138.981 25.7627 138.465 26.5752C137.949 27.3792 137.191 27.9844 136.192 28.3906C135.202 28.7969 133.992 29 132.562 29ZM149.281 25.9023V19.7832C149.281 19.3431 149.209 18.9665 149.065 18.6533C148.922 18.3317 148.697 18.082 148.393 17.9043C148.096 17.7266 147.711 17.6377 147.237 17.6377C146.831 17.6377 146.48 17.7096 146.184 17.8535C145.887 17.9889 145.659 18.1878 145.498 18.4502C145.337 18.7041 145.257 19.0046 145.257 19.3516H141.601C141.601 18.7676 141.736 18.2132 142.007 17.6885C142.278 17.1637 142.671 16.7025 143.188 16.3047C143.704 15.8984 144.317 15.5811 145.028 15.3525C145.748 15.124 146.552 15.0098 147.44 15.0098C148.507 15.0098 149.455 15.1875 150.284 15.543C151.114 15.8984 151.765 16.4316 152.239 17.1426C152.722 17.8535 152.963 18.7422 152.963 19.8086V25.6865C152.963 26.4398 153.009 27.0576 153.103 27.54C153.196 28.014 153.331 28.4287 153.509 28.7842V29H149.814C149.637 28.6276 149.501 28.1621 149.408 27.6035C149.324 27.0365 149.281 26.4694 149.281 25.9023ZM149.764 20.6338L149.789 22.7031H147.745C147.263 22.7031 146.844 22.7581 146.488 22.8682C146.133 22.9782 145.841 23.1348 145.612 23.3379C145.384 23.5326 145.215 23.7611 145.104 24.0234C145.003 24.2858 144.952 24.5736 144.952 24.8867C144.952 25.1999 145.024 25.4834 145.168 25.7373C145.312 25.9827 145.519 26.1774 145.79 26.3213C146.061 26.4567 146.378 26.5244 146.742 26.5244C147.292 26.5244 147.771 26.4144 148.177 26.1943C148.583 25.9743 148.896 25.7035 149.116 25.3818C149.345 25.0602 149.463 24.7555 149.472 24.4678L150.437 26.0166C150.301 26.3636 150.115 26.7233 149.878 27.0957C149.649 27.4681 149.357 27.8193 149.002 28.1494C148.646 28.471 148.219 28.7376 147.72 28.9492C147.22 29.1523 146.628 29.2539 145.942 29.2539C145.071 29.2539 144.279 29.0804 143.568 28.7334C142.866 28.3779 142.307 27.8913 141.893 27.2734C141.486 26.6471 141.283 25.9362 141.283 25.1406C141.283 24.4212 141.419 23.7822 141.689 23.2236C141.96 22.665 142.358 22.1953 142.883 21.8145C143.416 21.4251 144.08 21.1331 144.876 20.9385C145.672 20.7354 146.594 20.6338 147.644 20.6338H149.764ZM159.438 18.2598V29H155.781V15.2637H159.222L159.438 18.2598ZM163.576 15.1748L163.513 18.5645C163.335 18.5391 163.119 18.5179 162.865 18.501C162.62 18.4756 162.396 18.4629 162.192 18.4629C161.676 18.4629 161.228 18.5306 160.847 18.666C160.474 18.793 160.161 18.9834 159.907 19.2373C159.662 19.4912 159.476 19.8001 159.349 20.1641C159.23 20.528 159.162 20.9427 159.146 21.4082L158.409 21.1797C158.409 20.291 158.498 19.4743 158.676 18.7295C158.854 17.9762 159.112 17.3203 159.45 16.7617C159.797 16.2031 160.22 15.7715 160.72 15.4668C161.219 15.1621 161.79 15.0098 162.434 15.0098C162.637 15.0098 162.844 15.0267 163.056 15.0605C163.267 15.0859 163.441 15.124 163.576 15.1748Z" fill="white"/>
</svg>
