<svg width="21" height="21" viewBox="0 0 21 21" fill="none" xmlns="http://www.w3.org/2000/svg">
<rect x="0.00112915" y="0.00585938" width="20" height="20" rx="10" fill="black"/>
<path d="M12.7785 8.05485C12.5638 7.928 12.2848 7.928 12.0487 8.05485L10.3746 9.02737L9.23701 9.66163L7.56289 10.6341C7.34826 10.761 7.06924 10.761 6.83314 10.6341L5.50242 9.87301C5.28779 9.74617 5.13755 9.51363 5.13755 9.25993V7.75886C5.13755 7.50516 5.26633 7.27261 5.50242 7.14576L6.81168 6.4058C7.02631 6.27895 7.30533 6.27895 7.54143 6.4058L8.8507 7.14576C9.06531 7.27261 9.21556 7.50516 9.21556 7.75886V8.73138L10.3531 8.07599V7.10348C10.3531 6.84977 10.2244 6.61721 9.98824 6.49036L7.56289 5.09502C7.34826 4.96817 7.06924 4.96817 6.83314 5.09502L4.36487 6.49036C4.12877 6.61721 3.99999 6.84977 3.99999 7.10348V9.91532C3.99999 10.169 4.12877 10.4016 4.36487 10.5284L6.83314 11.9238C7.04777 12.0506 7.3268 12.0506 7.56289 11.9238L9.23701 10.9724L10.3746 10.317L12.0487 9.36563C12.2633 9.23878 12.5424 9.23878 12.7785 9.36563L14.0877 10.1056C14.3023 10.2324 14.4526 10.465 14.4526 10.7187V12.2197C14.4526 12.4735 14.3238 12.706 14.0877 12.8329L12.7785 13.594C12.5638 13.7208 12.2848 13.7208 12.0487 13.594L10.7395 12.854C10.5248 12.7272 10.3746 12.4946 10.3746 12.2409V11.2684L9.23701 11.9238V12.8963C9.23701 13.15 9.36582 13.3826 9.60188 13.5094L12.0702 14.9047C12.2848 15.0316 12.5638 15.0316 12.7999 14.9047L15.2682 13.5094C15.4828 13.3826 15.6331 13.15 15.6331 12.8963V10.0844C15.6331 9.83074 15.5043 9.59821 15.2682 9.47136L12.7785 8.05485Z" fill="#8247E5"/>
</svg>
