<svg width="20" height="20" viewBox="0 0 20 20" fill="none" xmlns="http://www.w3.org/2000/svg">
<rect x="-3.05176e-05" width="20" height="20" rx="10" fill="black"/>
<path fill-rule="evenodd" clip-rule="evenodd" d="M6.71754 12.8625C6.74949 12.8279 6.78811 12.8001 6.83107 12.7808C6.87402 12.7614 6.92044 12.751 6.96754 12.75H14.8224C14.8557 12.7505 14.888 12.7605 14.9157 12.779C14.9433 12.7974 14.9651 12.8235 14.9783 12.854C14.9915 12.8845 14.9956 12.9181 14.9901 12.9509C14.9847 12.9837 14.9699 13.0142 14.9474 13.0388L13.2824 14.8875C13.2505 14.9221 13.2119 14.9499 13.1689 14.9692C13.126 14.9886 13.0795 14.999 13.0324 15H5.17256C5.13933 14.9995 5.10693 14.9895 5.07928 14.971C5.05163 14.9526 5.02989 14.9265 5.01669 14.896C5.00348 14.8655 4.99937 14.8319 5.00485 14.7991C5.01033 14.7663 5.02516 14.7358 5.04756 14.7113L6.71754 12.8625ZM14.9549 11.33C14.9774 11.3545 14.9922 11.3851 14.9976 11.4178C15.0031 11.4506 14.999 11.4843 14.9858 11.5148C14.9726 11.5453 14.9508 11.5713 14.9232 11.5898C14.8955 11.6082 14.8632 11.6183 14.8299 11.6187L6.97253 11.625C6.92544 11.624 6.87902 11.6136 6.83606 11.5943C6.79311 11.5749 6.75449 11.5471 6.72254 11.5125L5.04506 9.67C5.02266 9.64545 5.00783 9.61494 5.00235 9.58216C4.99687 9.54938 5.00098 9.51571 5.01419 9.4852C5.02739 9.4547 5.04913 9.42866 5.07678 9.41022C5.10443 9.39178 5.13683 9.38172 5.17006 9.38125L13.0274 9.375C13.0745 9.37597 13.121 9.38642 13.1639 9.40575C13.2069 9.42508 13.2455 9.45289 13.2774 9.4875L14.9549 11.33ZM6.71754 6.1125C6.74949 6.07789 6.78811 6.05009 6.83107 6.03075C6.87402 6.01142 6.92044 6.00096 6.96754 6L14.8274 6.00625C14.8606 6.00672 14.8931 6.01678 14.9207 6.03522C14.9484 6.05366 14.9701 6.0797 14.9833 6.1102C14.9965 6.14071 15.0006 6.17438 14.9952 6.20716C14.9896 6.23994 14.9748 6.27045 14.9524 6.295L13.2824 8.1375C13.2505 8.17211 13.2119 8.19992 13.1689 8.21925C13.126 8.23858 13.0795 8.24903 13.0324 8.25H5.17256C5.13933 8.24953 5.10693 8.23947 5.07928 8.22103C5.05163 8.20259 5.02989 8.17655 5.01669 8.14605C5.00348 8.11554 4.99937 8.08188 5.00485 8.04909C5.01033 8.01631 5.02516 7.9858 5.04756 7.96125L6.71754 6.1125Z" fill="url(#paint0_linear_4_293)"/>
<defs>
<linearGradient id="paint0_linear_4_293" x1="5.30381" y1="15.1962" x2="14.6963" y2="5.80389" gradientUnits="userSpaceOnUse">
<stop stop-color="#9945FF"/>
<stop offset="0.14" stop-color="#8A53F4"/>
<stop offset="0.42" stop-color="#6377D6"/>
<stop offset="0.79" stop-color="#24B0A7"/>
<stop offset="0.99" stop-color="#00D18C"/>
<stop offset="1" stop-color="#00D18C"/>
</linearGradient>
</defs>
</svg>
