<svg width="40" height="40" viewBox="0 0 40 40" fill="none" xmlns="http://www.w3.org/2000/svg">
<circle cx="20" cy="20" r="20" fill="white" fill-opacity="0.11"/>
<path d="M10.0755 19.5739C15.9005 17.0114 23.438 13.8873 24.4788 13.4548C27.208 12.3231 28.0455 12.5398 27.628 15.0464C27.328 16.8481 26.463 22.8122 25.773 26.5247C25.3638 28.7264 24.4455 28.9872 23.0022 28.0347C22.308 27.5764 18.8038 25.2589 18.043 24.7147C17.3488 24.2189 16.3913 23.6222 17.5922 22.4472C18.0197 22.0289 20.8205 19.3539 23.003 17.2722C23.2888 16.9989 22.9297 16.5497 22.5997 16.7689C19.658 18.7197 15.5797 21.4272 15.0605 21.7797C14.2763 22.3122 13.523 22.5564 12.1713 22.1681C11.1497 21.8747 10.1522 21.5247 9.76384 21.3914C8.26801 20.8781 8.62301 20.2131 10.0755 19.5739Z" fill="#57A1F7"/>
</svg>
