<svg width="50" height="50" viewBox="0 0 50 50" fill="none" xmlns="http://www.w3.org/2000/svg">
<circle cx="25" cy="25" r="25" fill="white"/>
<path d="M12.5943 24.4673C19.8756 21.2642 29.2974 17.359 30.5985 16.8184C34.01 15.4038 35.0568 15.6746 34.535 18.808C34.16 21.06 33.0787 28.5152 32.2162 33.1559C31.7047 35.908 30.5568 36.234 28.7527 35.0434C27.885 34.4705 23.5047 31.5736 22.5537 30.8934C21.686 30.2736 20.4891 29.5277 21.9902 28.059C22.5245 27.5361 26.0256 24.1923 28.7537 21.5903C29.111 21.2486 28.662 20.6871 28.2495 20.9611C24.5724 23.3996 19.4745 26.784 18.8256 27.2246C17.8454 27.8902 16.9037 28.1955 15.2141 27.71C13.937 27.3434 12.6902 26.9059 12.2047 26.7392C10.3349 26.0975 10.7787 25.2663 12.5943 24.4673Z" fill="#57A1F7"/>
</svg>
