<svg width="16" height="10" viewBox="0 0 16 10" fill="none" xmlns="http://www.w3.org/2000/svg">
<path d="M8.62432 0.271513L15.7444 7.84631C15.9092 8.02151 16 8.25538 16 8.50475C16 8.75412 15.9092 8.98799 15.7444 9.16318L15.2202 9.72102C14.8786 10.084 14.3234 10.084 13.9823 9.72102L8.00332 3.36027L2.01768 9.72807C1.85286 9.90327 1.63316 10 1.39888 10C1.16435 10 0.944643 9.90327 0.779701 9.72807L0.255608 9.17024C0.0907965 8.99491 9.53674e-07 8.76117 9.53674e-07 8.5118C9.53674e-07 8.26243 0.0907965 8.02856 0.255608 7.85337L7.38218 0.271513C7.54752 0.0959024 7.76826 -0.000552177 8.00293 1.90735e-06C8.2385 -0.000552177 8.45912 0.0959024 8.62432 0.271513Z" fill="white" fill-opacity="0.9"/>
</svg>
